<svg width="227" height="246" viewBox="0 0 227 746" fill="none" xmlns="http://www.w3.org/2000/svg">
<path d="M179.229 60.918L178.596 59.0206L178.588 59.0233L179.229 60.918ZM197.246 53.8867L196.408 52.0708L196.401 52.0739L196.394 52.0771L197.246 53.8867ZM222.148 59.1602L220.348 60.0305L220.354 60.0428L222.148 59.1602ZM221.709 101.934L220.109 100.734L220.103 100.742L220.096 100.751L221.709 101.934ZM167.51 103.252L167.785 101.271L167.758 101.267L167.731 101.264L167.51 103.252ZM62.1875 100.322L61.8876 102.3L61.8908 102.3L62.1875 100.322ZM11.3574 71.6113L9.67257 72.689L9.67883 72.6987L11.3574 71.6113ZM6.81641 9.50194L8.48892 10.5987L8.49329 10.5919L6.81641 9.50194ZM41.6797 25.9082L43.6746 26.0507L43.6797 25.9795L43.6797 25.9082L41.6797 25.9082ZM41.3867 30.0098L39.3918 29.8673L39.3867 29.9384L39.3867 30.0098L41.3867 30.0098ZM65.4102 55.3516L64.7951 57.2546L64.7956 57.2548L65.4102 55.3516ZM144.951 66.4336C160.892 66.4336 172.602 65.269 179.869 62.8126L178.588 59.0233C171.988 61.2544 160.846 62.4336 144.951 62.4336L144.951 66.4336ZM179.861 62.8153C186.943 60.4546 193.026 58.0828 198.098 55.6964L196.394 52.0771C191.505 54.3781 185.576 56.6938 178.596 59.0206L179.861 62.8153ZM198.084 55.7026C202.976 53.4451 207.375 52.3711 211.309 52.3711L211.309 48.3711C206.649 48.3711 201.673 49.6408 196.408 52.0708L198.084 55.7026ZM211.309 52.3711C214.593 52.3711 217.668 54.4867 220.348 60.0305L223.949 58.2898C220.965 52.1149 216.814 48.3711 211.309 48.3711L211.309 52.3711ZM220.354 60.0428C223.1 65.6267 224.543 73.1517 224.543 82.7441L228.543 82.7441C228.543 72.8053 227.056 64.6076 223.943 58.2775L220.354 60.0428ZM224.543 82.7441L224.543 86.1133L228.543 86.1133L228.543 82.7441L224.543 82.7441ZM224.543 86.1133C224.543 92.0041 223.031 96.8374 220.109 100.734L223.309 103.134C226.832 98.436 228.543 92.7225 228.543 86.1133L224.543 86.1133ZM220.096 100.751C217.252 104.629 213.506 106.525 208.672 106.525L208.672 110.525C214.775 110.525 219.721 108.027 223.322 103.116L220.096 100.751ZM208.672 106.525L203.105 106.525L203.105 110.525L208.672 110.525L208.672 106.525ZM203.105 106.525C201.858 106.525 199.256 106.175 195.13 105.389L194.382 109.318C198.459 110.095 201.423 110.525 203.105 110.525L203.105 106.525ZM195.13 105.389C190.97 104.596 181.834 103.222 167.785 101.271L167.235 105.233C181.31 107.188 190.339 108.548 194.382 109.318L195.13 105.389ZM167.731 101.264C166.717 101.152 162.349 101.081 154.888 101.032C147.338 100.983 136.456 100.959 122.246 100.959L122.246 104.959C136.454 104.959 147.325 104.983 154.863 105.032C162.49 105.082 166.545 105.157 167.289 105.24L167.731 101.264ZM122.246 100.959C93.9266 100.959 74.0405 100.078 62.4842 98.3444L61.8908 102.3C73.772 104.082 93.925 104.959 122.246 104.959L122.246 100.959ZM62.4873 98.3449C39.0431 94.7898 22.6958 85.4357 13.036 70.5239L9.67883 72.6987C20.1362 88.8416 37.6757 98.6282 61.8876 102.3L62.4873 98.3449ZM13.0422 70.5336C6.29159 59.9798 2.95703 49.1187 2.95703 37.9199L-1.04297 37.9199C-1.04297 49.9633 2.55606 61.5631 9.6726 72.689L13.0422 70.5336ZM2.95703 37.9199L2.95703 34.5508L-1.04297 34.5508L-1.04297 37.9199L2.95703 37.9199ZM2.95703 34.5508C2.95703 24.0132 4.87915 16.1035 8.48889 10.5987L5.14392 8.40523C0.941161 14.8144 -1.04297 23.6039 -1.04297 34.5508L2.95703 34.5508ZM8.49329 10.5919C11.9918 5.20956 16.3838 2.71288 21.7578 2.71288L21.7578 -1.28712C14.8271 -1.28712 9.25818 2.07557 5.13953 8.41196L8.49329 10.5919ZM21.7578 2.71288L24.541 2.71288L24.541 -1.28712L21.7578 -1.28712L21.7578 2.71288ZM24.541 2.71288C28.58 2.71288 32.0759 4.56087 35.0909 8.63994L38.3076 6.26238C34.6819 1.35708 30.0724 -1.28712 24.541 -1.28712L24.541 2.71288ZM35.0909 8.63994C38.0731 12.6748 39.6797 18.3574 39.6797 25.9082L43.6797 25.9082C43.6797 17.834 41.9659 11.2119 38.3076 6.26238L35.0909 8.63994ZM39.6848 25.7657L39.3918 29.8673L43.3816 30.1522L43.6746 26.0507L39.6848 25.7657ZM39.3867 30.0098C39.3867 36.3772 41.5823 41.9122 45.9411 46.5102C50.2553 51.0611 56.6015 54.6067 64.7951 57.2546L66.0252 53.4485C58.2031 50.9206 52.5377 47.6547 48.8441 43.7583C45.195 39.909 43.3867 35.3611 43.3867 30.0098L39.3867 30.0098ZM64.7956 57.2548C83.8385 63.4041 110.595 66.4336 144.951 66.4336L144.951 62.4336C110.752 62.4336 84.4818 59.4084 66.0247 53.4483L64.7956 57.2548ZM191.533 299.219L189.539 299.065L189.533 299.142L189.533 299.219L191.533 299.219ZM144.512 231.396L142.993 230.095L142.984 230.105L142.975 230.116L144.512 231.396ZM142.168 263.623L140.216 264.057L140.219 264.072L140.222 264.086L142.168 263.623ZM115.361 293.213L116.05 291.335L116.039 291.331L115.361 293.213ZM109.941 267.285L107.988 266.858L107.984 266.872L107.981 266.887L109.941 267.285ZM53.8379 229.785L52.5714 228.237L52.561 228.246L52.5507 228.254L53.8379 229.785ZM50.7617 279.736L48.7927 280.087L48.7941 280.095L48.7955 280.102L50.7617 279.736ZM51.0547 313.721L49.4419 312.538L49.4327 312.55L49.4237 312.563L51.0547 313.721ZM22.1973 308.154L20.3325 308.877L20.3348 308.883L22.1973 308.154ZM22.4902 186.133L20.6287 185.401L20.623 185.416L20.6176 185.431L22.4902 186.133ZM88.9941 183.936L88.9842 185.936L88.9941 185.936L88.9941 183.936ZM140.41 184.814L140.499 182.816L140.49 182.816L140.41 184.814ZM156.816 185.547L156.727 187.545L156.736 187.545L156.816 185.547ZM197.539 182.91L198.18 184.805L198.189 184.802L197.539 182.91ZM219.805 182.764L221.422 181.587L221.409 181.569L221.396 181.552L219.805 182.764ZM225.664 261.719L223.664 261.719L223.664 261.728L223.664 261.737L225.664 261.719ZM225.811 277.832L227.811 277.832L227.811 277.823L227.81 277.814L225.811 277.832ZM208.086 312.453C202.837 312.453 199.274 311.242 197.026 309.173C194.809 307.133 193.533 303.944 193.533 299.219L189.533 299.219C189.533 304.65 191.016 309.078 194.317 312.116C197.586 315.125 202.299 316.453 208.086 316.453L208.086 312.453ZM193.527 299.372C193.62 298.165 194.343 292.132 195.715 281.156L191.746 280.66C190.383 291.559 189.641 297.734 189.539 299.065L193.527 299.372ZM195.715 281.156C197.091 270.146 197.781 259.662 197.781 249.707L193.781 249.707C193.781 259.478 193.104 269.795 191.746 280.66L195.715 281.156ZM197.781 249.707C197.781 239.778 195.421 232.475 189.81 228.968L187.69 232.36C191.454 234.713 193.781 240.104 193.781 249.707L197.781 249.707ZM189.81 228.968C187.095 227.271 182.926 226.129 177.561 225.387C172.138 224.637 165.263 224.27 156.963 224.27L156.963 228.27C165.167 228.27 171.841 228.634 177.014 229.349C182.245 230.073 185.717 231.127 187.69 232.36L189.81 228.968ZM156.963 224.27C151.132 224.27 146.377 226.147 142.993 230.095L146.03 232.698C148.506 229.81 152.052 228.27 156.963 228.27L156.963 224.27ZM142.975 230.116C139.562 234.212 138.117 241.245 138.117 250.586L142.117 250.586C142.117 241.372 143.602 235.612 146.048 232.677L142.975 230.116ZM138.117 250.586C138.117 253.369 138.85 257.91 140.216 264.057L144.12 263.189C142.752 257.031 142.117 252.88 142.117 250.586L138.117 250.586ZM140.222 264.086C141.666 270.151 142.365 275.21 142.365 279.297L146.365 279.297C146.365 274.79 145.599 269.4 144.114 263.16L140.222 264.086ZM142.365 279.297C142.365 284.206 141.238 287.515 139.338 289.592C137.467 291.636 134.536 292.824 130.156 292.824L130.156 296.824C135.249 296.824 139.422 295.425 142.288 292.293C145.124 289.194 146.365 284.739 146.365 279.297L142.365 279.297ZM130.156 292.824C123.241 292.824 118.62 292.278 116.05 291.335L114.673 295.091C117.962 296.297 123.204 296.824 130.156 296.824L130.156 292.824ZM116.039 291.331C113.859 290.547 112.391 289.496 111.462 288.27C110.546 287.06 110.037 285.525 110.037 283.545L106.037 283.545C106.037 286.252 106.749 288.673 108.274 290.685C109.787 292.682 111.98 294.121 114.684 295.095L116.039 291.331ZM110.037 283.545C110.037 279.129 110.649 273.849 111.901 267.683L107.981 266.887C106.695 273.222 106.037 278.781 106.037 283.545L110.037 283.545ZM111.895 267.713C113.298 261.299 113.992 254.219 113.992 246.484L109.992 246.484C109.992 253.984 109.319 260.772 107.988 266.858L111.895 267.713ZM113.992 246.484C113.992 238.651 112.346 232.485 108.632 228.434L105.684 231.137C108.416 234.117 109.992 239.083 109.992 246.484L113.992 246.484ZM108.632 228.434C106.58 226.195 103.089 224.771 98.6579 223.87C94.1518 222.954 88.3267 222.512 81.2305 222.512L81.2305 226.512C88.1967 226.512 93.7242 226.949 97.8606 227.79C102.072 228.647 104.513 229.86 105.684 231.137L108.632 228.434ZM81.2305 222.512C74.1775 222.512 68.2659 222.955 63.5306 223.866C58.8328 224.771 55.0954 226.172 52.5714 228.237L55.1044 231.333C56.8773 229.882 59.8537 228.647 64.2868 227.794C68.6823 226.948 74.3185 226.512 81.2305 226.512L81.2305 222.512ZM52.5507 228.254C47.6105 232.409 45.3926 239.17 45.3926 247.949L49.3926 247.949C49.3926 239.737 51.4715 234.388 55.1251 231.316L52.5507 228.254ZM45.3926 247.949C45.3926 256.703 46.535 267.424 48.7927 280.087L52.7307 279.385C50.4962 266.853 49.3926 256.383 49.3926 247.949L45.3926 247.949ZM48.7955 280.102C51.1498 292.757 52.2773 300.614 52.2773 303.906L56.2773 303.906C56.2773 300.167 55.0612 291.911 52.728 279.371L48.7955 280.102ZM52.2773 303.906C52.2773 307.092 51.3402 309.949 49.4419 312.538L52.6675 314.903C55.066 311.633 56.2773 307.947 56.2773 303.906L52.2773 303.906ZM49.4237 312.563C47.8893 314.725 44.1405 316.262 36.9922 316.262L36.9922 320.262C44.297 320.262 49.9232 318.771 52.6857 314.878L49.4237 312.563ZM36.9922 316.262C33.6957 316.262 31.0707 315.497 29.0017 314.083C26.9325 312.67 25.263 310.501 24.0597 307.425L20.3348 308.883C21.7682 312.546 23.8829 315.431 26.7453 317.386C29.608 319.342 33.0621 320.262 36.9922 320.262L36.9922 316.262ZM24.062 307.431C23.6869 306.464 23.305 304.777 22.9614 302.246C22.6229 299.751 22.3367 296.559 22.1064 292.656C21.6459 284.851 21.4141 274.3 21.4141 260.986L17.4141 260.986C17.4141 274.333 17.6461 284.973 18.1133 292.891C18.3469 296.849 18.6405 300.151 18.9978 302.784C19.35 305.379 19.7799 307.452 20.3325 308.877L24.062 307.431ZM21.4141 260.986L21.4141 222.021L17.4141 222.021L17.4141 260.986L21.4141 260.986ZM21.4141 222.021C21.4141 212.823 21.6698 205.28 22.1758 199.377C22.6857 193.428 23.4387 189.3 24.3629 186.835L20.6176 185.431C19.491 188.435 18.7059 193.022 18.1904 199.036C17.671 205.096 17.4141 212.763 17.4141 222.021L21.4141 222.021ZM24.3517 186.864C25.2909 184.474 26.6706 182.788 28.4541 181.679C30.256 180.557 32.6227 179.93 35.6738 179.93L35.6738 175.93C32.0843 175.93 28.9334 176.669 26.3408 178.282C23.7298 179.907 21.838 182.323 20.6287 185.401L24.3517 186.864ZM35.6738 179.93C36.5736 179.93 38.0975 180.134 40.3437 180.617C42.5546 181.093 45.3523 181.812 48.7474 182.782L49.8463 178.936C46.4055 177.953 43.5148 177.208 41.1847 176.707C38.8898 176.213 37.0201 175.93 35.6738 175.93L35.6738 179.93ZM48.7474 182.782C55.8863 184.822 69.3862 185.838 88.9842 185.936L89.0041 181.936C69.3443 181.838 56.3794 180.803 49.8463 178.936L48.7474 182.782ZM88.9941 185.936C108.605 185.936 125.716 186.228 140.33 186.813L140.49 182.816C125.808 182.229 108.641 181.936 88.9941 181.936L88.9941 185.936ZM140.321 186.812L156.727 187.545L156.906 183.549L140.499 182.816L140.321 186.812ZM156.736 187.545C166.414 187.936 174.062 188.133 179.668 188.133L179.668 184.133C174.141 184.133 166.555 183.939 156.897 183.549L156.736 187.545ZM179.668 188.133C185.492 188.133 191.667 187.009 198.18 184.805L196.898 181.016C190.716 183.108 184.977 184.133 179.668 184.133L179.668 188.133ZM198.189 184.802C204.38 182.673 209.01 181.687 212.187 181.687L212.187 177.687C208.334 177.687 203.198 178.85 196.889 181.019L198.189 184.802ZM212.187 181.687C215.322 181.687 217.156 182.587 218.214 183.976L221.396 181.552C219.328 178.838 216.084 177.687 212.187 177.687L212.187 181.687ZM218.187 183.94C218.785 184.761 219.439 186.138 220.096 188.204C220.745 190.244 221.362 192.84 221.938 196.012L225.874 195.297C225.279 192.024 224.626 189.249 223.908 186.991C223.198 184.76 222.387 182.914 221.422 181.587L218.187 183.94ZM221.938 196.012C222.492 199.054 222.931 206.008 223.225 217.058C223.518 228.043 223.664 242.927 223.664 261.719L227.664 261.719C227.664 242.913 227.518 227.988 227.224 216.951C226.932 205.979 226.493 198.699 225.874 195.297L221.938 196.012ZM223.664 261.737L223.811 277.85L227.81 277.814L227.664 261.701L223.664 261.737ZM223.811 277.832L223.811 283.105L227.811 283.105L227.811 277.832L223.811 277.832ZM223.811 283.105C223.811 294.8 222.423 302.462 219.991 306.545L223.427 308.592C226.464 303.495 227.811 294.849 227.811 283.105L223.811 283.105ZM219.991 306.545C217.69 310.406 213.885 312.453 208.086 312.453L208.086 316.453C214.982 316.453 220.259 313.91 223.427 308.592L219.991 306.545ZM223.027 531.074L221.385 529.933L221.367 529.959L221.349 529.986L223.027 531.074ZM189.629 527.705L191.596 527.344L191.571 527.206L191.526 527.073L189.629 527.705ZM192.705 510.273L194.637 510.792L194.639 510.785L194.641 510.777L192.705 510.273ZM103.203 472.334L103.132 474.333L103.167 474.334L103.203 474.334L103.203 472.334ZM99.1015 472.187L99.1729 470.189L99.1372 470.187L99.1015 470.187L99.1015 472.187ZM64.9707 472.48L64.7811 470.489L64.7343 470.494L64.6878 470.501L64.9707 472.48ZM51.9336 476.436L52.5822 478.327L52.5907 478.325L52.5992 478.322L51.9336 476.436ZM53.3984 429.414L52.795 431.321L52.8019 431.323L53.3984 429.414ZM73.7597 433.809L73.9588 431.819L73.9437 431.817L73.9286 431.816L73.7597 433.809ZM185.967 432.93L186.416 434.879L186.426 434.876L185.967 432.93ZM192.412 398.799L190.504 399.398L190.506 399.405L190.508 399.412L192.412 398.799ZM221.709 376.826L223.339 375.668L223.332 375.657L223.325 375.647L221.709 376.826ZM225.664 402.461L223.664 402.461L223.664 402.482L223.664 402.502L225.664 402.461ZM226.25 430.879L228.25 430.855L228.25 430.846L228.25 430.838L226.25 430.879ZM226.689 468.086L228.689 468.086L228.689 468.074L228.689 468.062L226.689 468.086ZM224.689 509.395C224.689 514.8 224.387 519.221 223.802 522.684C223.21 526.186 222.358 528.532 221.385 529.933L224.67 532.215C226.138 530.101 227.117 527.076 227.746 523.351C228.382 519.588 228.689 514.926 228.689 509.395L224.689 509.395ZM221.349 529.986C219.575 532.721 215.65 534.494 208.525 534.494L208.525 538.494C216.049 538.494 221.792 536.654 224.705 532.163L221.349 529.986ZM208.525 534.494L204.717 534.494L204.717 538.494L208.525 538.494L208.525 534.494ZM204.717 534.494C200.402 534.494 197.299 533.784 195.213 532.569C193.216 531.406 192.031 529.715 191.596 527.344L187.662 528.066C188.301 531.554 190.167 534.259 193.2 536.025C196.143 537.739 200.047 538.494 204.717 538.494L204.717 534.494ZM191.526 527.073C191.529 527.08 191.516 527.043 191.504 526.944C191.492 526.848 191.482 526.713 191.482 526.533L187.482 526.533C187.482 527.127 187.538 527.758 187.732 528.338L191.526 527.073ZM191.482 526.533C191.482 524.007 192.478 518.839 194.637 510.792L190.773 509.755C188.636 517.723 187.482 523.395 187.482 526.533L191.482 526.533ZM194.641 510.777C197.088 501.378 198.367 494.187 198.367 489.326L194.367 489.326C194.367 493.645 193.205 500.419 190.77 509.769L194.641 510.777ZM198.367 489.326C198.367 484.47 197.039 480.431 194.119 477.512L191.291 480.34C193.254 482.303 194.367 485.198 194.367 489.326L198.367 489.326ZM194.119 477.512C191.238 474.63 186.589 472.827 180.583 471.826L179.925 475.772C185.638 476.724 189.29 478.339 191.291 480.34L194.119 477.512ZM180.583 471.826C174.527 470.817 161.067 470.334 140.41 470.334L140.41 474.334C161.16 474.334 174.262 474.828 179.925 475.772L180.583 471.826ZM140.41 470.334L103.203 470.334L103.203 474.334L140.41 474.334L140.41 470.334ZM103.274 470.335L99.1729 470.189L99.0302 474.186L103.132 474.333L103.274 470.335ZM99.1015 470.187L81.5234 470.187L81.5234 474.187L99.1015 474.187L99.1015 470.187ZM81.5234 470.187C72.5801 470.187 66.9492 470.283 64.7811 470.489L65.1603 474.471C67.0937 474.287 72.4979 474.187 81.5234 474.187L81.5234 470.187ZM64.6878 470.501C62.4026 470.827 57.8594 472.223 51.2679 474.55L52.5992 478.322C59.289 475.96 63.4372 474.72 65.2535 474.46L64.6878 470.501ZM51.2849 474.544C44.586 476.84 38.7574 477.951 33.7695 477.951L33.7695 481.951C39.3285 481.951 45.6093 480.718 52.5822 478.327L51.2849 474.544ZM33.7695 477.951C29.7122 477.951 26.8619 476.402 24.9136 473.317C22.8675 470.077 21.707 464.961 21.707 457.686L17.707 457.686C17.707 465.253 18.8903 471.271 21.5317 475.453C24.2708 479.79 28.4519 481.951 33.7695 481.951L33.7695 477.951ZM21.707 457.686L21.707 445.674L17.707 445.674L17.707 457.686L21.707 457.686ZM21.707 445.674C21.707 439.257 23.036 434.817 25.3524 432.004C27.6076 429.265 31.0662 427.752 36.1133 427.752L36.1133 423.752C30.2228 423.752 25.4783 425.559 22.2647 429.461C19.1124 433.289 17.707 438.809 17.707 445.674L21.707 445.674ZM36.1133 427.752C39.5943 427.752 45.1069 428.888 52.795 431.321L54.0018 427.507C46.2603 425.057 40.2494 423.752 36.1133 423.752L36.1133 427.752ZM52.8019 431.323C60.701 433.791 67.6379 435.297 73.5909 435.801L73.9286 431.816C68.3582 431.344 61.7208 429.919 53.995 427.505L52.8019 431.323ZM73.5607 435.799C79.546 436.397 98.5723 436.687 130.449 436.687L130.449 432.687C98.4589 432.687 79.6922 432.392 73.9588 431.819L73.5607 435.799ZM130.449 436.687C146.424 436.687 159.058 436.541 168.342 436.247C177.537 435.956 183.648 435.517 186.416 434.878L185.517 430.981C183.208 431.514 177.526 431.954 168.215 432.249C158.993 432.541 146.408 432.687 130.449 432.687L130.449 436.687ZM186.426 434.876C190.33 433.954 193.428 432.045 195.516 429.058C197.581 426.104 198.514 422.303 198.514 417.842L194.514 417.842C194.514 421.779 193.688 424.691 192.238 426.767C190.81 428.809 188.634 430.245 185.507 430.983L186.426 434.876ZM198.514 417.842C198.514 413.31 197.059 406.709 194.316 398.186L190.508 399.412C193.234 407.881 194.514 413.975 194.514 417.842L198.514 417.842ZM194.32 398.2C193.008 394.021 192.034 390.613 191.389 387.962C190.732 385.261 190.457 383.499 190.457 382.539L186.457 382.539C186.457 384.02 186.841 386.189 187.502 388.908C188.176 391.677 189.179 395.178 190.504 399.398L194.32 398.2ZM190.457 382.539C190.457 379.306 191.492 377.178 193.329 375.782C195.27 374.307 198.419 373.406 203.105 373.406L203.105 369.406C198.026 369.406 193.851 370.361 190.909 372.597C187.864 374.912 186.457 378.35 186.457 382.539L190.457 382.539ZM203.105 373.406C207.885 373.406 211.67 373.851 214.521 374.681C217.38 375.514 219.129 376.683 220.093 378.005L223.325 375.647C221.652 373.356 218.983 371.815 215.64 370.841C212.29 369.865 208.091 369.406 203.105 369.406L203.105 373.406ZM220.079 377.985C221.119 379.448 222.052 382.129 222.699 386.323C223.336 390.456 223.664 395.825 223.664 402.461L227.664 402.461C227.664 395.718 227.333 390.125 226.652 385.713C225.981 381.362 224.936 377.915 223.339 375.668L220.079 377.985ZM223.664 402.502L224.25 430.92L228.25 430.838L227.664 402.42L223.664 402.502ZM224.25 430.903L224.69 468.11L228.689 468.062L228.25 430.855L224.25 430.903ZM224.689 468.086L224.689 509.395L228.689 509.395L228.689 468.086L224.689 468.086ZM223.027 739.785L221.385 738.644L221.367 738.67L221.349 738.697L223.027 739.785ZM189.629 736.416L191.596 736.055L191.571 735.917L191.526 735.784L189.629 736.416ZM192.705 718.984L194.637 719.503L194.639 719.496L194.64 719.488L192.705 718.984ZM103.203 681.045L103.132 683.044L103.167 683.045L103.203 683.045L103.203 681.045ZM99.1015 680.898L99.1729 678.9L99.1372 678.898L99.1015 678.898L99.1015 680.898ZM64.9707 681.191L64.7811 679.2L64.7343 679.205L64.6878 679.211L64.9707 681.191ZM51.9336 685.146L52.5822 687.038L52.5907 687.035L52.5992 687.032L51.9336 685.146ZM53.3984 638.125L52.795 640.032L52.8019 640.034L53.3984 638.125ZM73.7597 642.52L73.9587 640.529L73.9437 640.528L73.9286 640.527L73.7597 642.52ZM185.967 641.641L186.416 643.589L186.426 643.587L185.967 641.641ZM192.412 607.51L190.504 608.109L190.506 608.116L190.508 608.122L192.412 607.51ZM221.709 585.537L223.339 584.379L223.332 584.368L223.325 584.358L221.709 585.537ZM225.664 611.172L223.664 611.172L223.664 611.193L223.664 611.213L225.664 611.172ZM226.25 639.59L228.25 639.566L228.25 639.557L228.25 639.549L226.25 639.59ZM226.689 676.797L228.689 676.797L228.689 676.785L228.689 676.773L226.689 676.797ZM224.689 718.105C224.689 723.511 224.387 727.932 223.802 731.395C223.21 734.897 222.358 737.242 221.385 738.644L224.67 740.926C226.138 738.812 227.117 735.787 227.746 732.062C228.382 728.299 228.689 723.637 228.689 718.105L224.689 718.105ZM221.349 738.697C219.575 741.432 215.65 743.205 208.525 743.205L208.525 747.205C216.049 747.205 221.792 745.365 224.705 740.874L221.349 738.697ZM208.525 743.205L204.717 743.205L204.717 747.205L208.525 747.205L208.525 743.205ZM204.717 743.205C200.402 743.205 197.299 742.495 195.213 741.28C193.216 740.116 192.031 738.426 191.596 736.055L187.662 736.777C188.301 740.265 190.167 742.969 193.2 744.736C196.143 746.45 200.047 747.205 204.717 747.205L204.717 743.205ZM191.526 735.784C191.529 735.791 191.516 735.754 191.504 735.655C191.492 735.559 191.482 735.424 191.482 735.244L187.482 735.244C187.482 735.838 187.538 736.469 187.732 737.048L191.526 735.784ZM191.482 735.244C191.482 732.718 192.478 727.55 194.637 719.503L190.773 718.466C188.636 726.434 187.482 732.106 187.482 735.244L191.482 735.244ZM194.64 719.488C197.088 710.089 198.367 702.898 198.367 698.037L194.367 698.037C194.367 702.356 193.205 709.13 190.77 718.48L194.64 719.488ZM198.367 698.037C198.367 693.181 197.039 689.142 194.119 686.223L191.291 689.051C193.254 691.014 194.367 693.909 194.367 698.037L198.367 698.037ZM194.119 686.223C191.238 683.341 186.589 681.538 180.583 680.537L179.925 684.483C185.638 685.435 189.289 687.05 191.291 689.051L194.119 686.223ZM180.583 680.537C174.527 679.528 161.067 679.045 140.41 679.045L140.41 683.045C161.16 683.045 174.262 683.539 179.925 684.483L180.583 680.537ZM140.41 679.045L103.203 679.045L103.203 683.045L140.41 683.045L140.41 679.045ZM103.274 679.046L99.1729 678.9L99.0302 682.897L103.132 683.044L103.274 679.046ZM99.1015 678.898L81.5234 678.898L81.5234 682.898L99.1015 682.898L99.1015 678.898ZM81.5234 678.898C72.5801 678.898 66.9492 678.994 64.7811 679.2L65.1603 683.182C67.0937 682.998 72.4979 682.898 81.5234 682.898L81.5234 678.898ZM64.6878 679.211C62.4026 679.538 57.8593 680.934 51.2679 683.26L52.5992 687.032C59.289 684.671 63.4372 683.431 65.2535 683.171L64.6878 679.211ZM51.2849 683.255C44.586 685.551 38.7574 686.662 33.7695 686.662L33.7695 690.662C39.3285 690.662 45.6093 689.429 52.5822 687.038L51.2849 683.255ZM33.7695 686.662C29.7122 686.662 26.8619 685.113 24.9136 682.028C22.8675 678.788 21.707 673.672 21.707 666.396L17.707 666.396C17.707 673.964 18.8903 679.981 21.5316 684.164C24.2708 688.501 28.4518 690.662 33.7695 690.662L33.7695 686.662ZM21.707 666.396L21.707 654.385L17.707 654.385L17.707 666.396L21.707 666.396ZM21.707 654.385C21.707 647.968 23.036 643.528 25.3524 640.715C27.6076 637.976 31.0662 636.463 36.1133 636.463L36.1133 632.463C30.2228 632.463 25.4782 634.27 22.2647 638.172C19.1124 642 17.707 647.52 17.707 654.385L21.707 654.385ZM36.1133 636.463C39.5943 636.463 45.1069 637.599 52.795 640.032L54.0018 636.218C46.2603 633.768 40.2494 632.463 36.1133 632.463L36.1133 636.463ZM52.8019 640.034C60.701 642.502 67.6379 644.008 73.5909 644.512L73.9286 640.527C68.3581 640.055 61.7208 638.63 53.995 636.216L52.8019 640.034ZM73.5607 644.51C79.546 645.108 98.5723 645.398 130.449 645.398L130.449 641.398C98.4589 641.398 79.6922 641.103 73.9587 640.529L73.5607 644.51ZM130.449 645.398C146.424 645.398 159.058 645.252 168.342 644.958C177.537 644.667 183.648 644.228 186.416 643.589L185.517 639.692C183.208 640.225 177.526 640.665 168.215 640.96C158.993 641.252 146.408 641.398 130.449 641.398L130.449 645.398ZM186.426 643.587C190.33 642.665 193.428 640.756 195.516 637.769C197.581 634.815 198.514 631.014 198.514 626.553L194.514 626.553C194.514 630.49 193.688 633.402 192.238 635.478C190.81 637.52 188.634 638.956 185.507 639.694L186.426 643.587ZM198.514 626.553C198.514 622.021 197.059 615.42 194.316 606.897L190.508 608.122C193.234 616.592 194.514 622.686 194.514 626.553L198.514 626.553ZM194.32 606.911C193.008 602.732 192.034 599.324 191.389 596.673C190.732 593.972 190.457 592.21 190.457 591.25L186.457 591.25C186.457 592.731 186.841 594.9 187.502 597.619C188.176 600.388 189.179 603.889 190.504 608.109L194.32 606.911ZM190.457 591.25C190.457 588.017 191.492 585.889 193.329 584.493C195.27 583.018 198.419 582.117 203.105 582.117L203.105 578.117C198.026 578.117 193.851 579.072 190.909 581.308C187.864 583.623 186.457 587.061 186.457 591.25L190.457 591.25ZM203.105 582.117C207.885 582.117 211.67 582.562 214.521 583.392C217.38 584.225 219.129 585.394 220.093 586.716L223.325 584.358C221.652 582.067 218.983 580.526 215.64 579.552C212.29 578.576 208.091 578.117 203.105 578.117L203.105 582.117ZM220.079 586.695C221.119 588.159 222.052 590.84 222.699 595.034C223.336 599.167 223.664 604.536 223.664 611.172L227.664 611.172C227.664 604.429 227.333 598.836 226.652 594.424C225.981 590.073 224.936 586.626 223.339 584.379L220.079 586.695ZM223.664 611.213L224.25 639.631L228.25 639.549L227.664 611.131L223.664 611.213ZM224.25 639.613L224.69 676.82L228.689 676.773L228.25 639.566L224.25 639.613ZM224.689 676.797L224.689 718.105L228.689 718.105L228.689 676.797L224.689 676.797Z" fill="white"/>
</svg>
